<svg width="100" height="100" viewBox="0 0 100 100" fill="none" xmlns="http://www.w3.org/2000/svg">
<g clip-path="url(#clip0_178_49)">
<path d="M0 25.1639V36.1111H15.6333L0 25.1639ZM12.9556 86.1111H36.1111V69.8972L12.9556 86.1111ZM63.8889 69.9V86.1111H87.0417L63.8889 69.9ZM0 63.8889V74.8361L15.6389 63.8889H0ZM87.0472 13.8889H63.8889V30.1028L87.0472 13.8889ZM100 74.8389V63.8889H84.3583L100 74.8389ZM100 36.1111V25.1639L84.3639 36.1111H100ZM36.1111 13.8889H12.9556L36.1111 30.1028V13.8889Z" fill="#00247D"/>
<path d="M69.8333 63.8889L96.8111 82.7805C98.1286 81.4232 99.0755 79.7504 99.5611 77.9222L79.5195 63.8889H69.8333ZM36.1111 63.8889H30.1639L3.1889 82.7777C4.63613 84.25 6.49168 85.3027 8.57224 85.7916L36.1111 66.5083V63.8889ZM63.8889 36.1111H69.8361L96.8111 17.2222C95.339 15.7285 93.4732 14.6834 91.4306 14.2083L63.8889 33.4916V36.1111ZM30.1639 36.1111L3.1889 17.2222C1.87211 18.5805 0.9245 20.2529 0.436127 22.0805L20.4778 36.1111H30.1639Z" fill="#CF1B2B"/>
<path d="M100 58.3334H58.3333V86.1111H63.8889V69.9L87.0417 86.1111H88.8889C90.3646 86.1114 91.8255 85.8169 93.1859 85.245C94.5463 84.673 95.7788 83.8352 96.8111 82.7806L69.8333 63.8889H79.5194L99.5611 77.9222C99.8194 76.9861 100 76.0167 100 75V74.8389L84.3583 63.8889H100V58.3334ZM0 58.3334V63.8889H15.6389L0 74.8361V75C0 78.0306 1.21944 80.7722 3.18889 82.7778L30.1639 63.8889H36.1111V66.5084L8.57222 85.7889C9.38889 85.9834 10.2333 86.1111 11.1111 86.1111H12.9556L36.1111 69.8972V86.1111H41.6667V58.3334H0ZM100 25C100.002 22.0889 98.8559 19.2943 96.8111 17.2222L69.8361 36.1111H63.8889V33.4917L91.4306 14.2084C90.5985 14.0043 89.7456 13.8971 88.8889 13.8889H87.0472L63.8889 30.1028V13.8889H58.3333V41.6667H100V36.1111H84.3639L100 25.1639V25ZM36.1111 13.8889V30.1028L12.9556 13.8889H11.1111C9.63506 13.8883 8.17379 14.1828 6.81327 14.7553C5.45275 15.3277 4.22046 16.1665 3.18889 17.2222L30.1639 36.1111H20.4778L0.436111 22.0806C0.160501 23.0298 0.013815 24.0117 0 25L0 25.1639L15.6333 36.1111H0V41.6667H41.6667V13.8889H36.1111Z" fill="#EEEEEE"/>
<path d="M58.3333 41.6667V13.8889H41.6667V41.6667H0V58.3334H41.6667V86.1111H58.3333V58.3334H100V41.6667H58.3333Z" fill="#CF1B2B"/>
</g>
<defs>
<clipPath id="clip0_178_49">
<rect width="100" height="100" fill="white"/>
</clipPath>
</defs>
</svg>
