<svg width="88" height="88" viewBox="0 0 88 88" fill="none" xmlns="http://www.w3.org/2000/svg">
<path d="M0 87.5H12.6L43.6781 78.8281L74.7563 87.5H87.5V22.8125C87.5 21.8686 87.3141 20.934 86.9529 20.062C86.5917 19.1899 86.0623 18.3976 85.3948 17.7302C84.7274 17.0627 83.9351 16.5333 83.063 16.1721C82.191 15.8109 81.2564 15.625 80.3125 15.625H7.1875C6.24362 15.625 5.30899 15.8109 4.43696 16.1721C3.56494 16.5333 2.77259 17.0627 2.10517 17.7302C1.43775 18.3976 0.908321 19.1899 0.547116 20.062C0.18591 20.934 0 21.8686 0 22.8125V87.5Z" fill="#9B9B9B"/>
<path d="M78.125 37.5H75C73.2812 37.5 71.875 36.0938 71.875 34.375V31.25C71.875 29.5312 73.2812 28.125 75 28.125H78.125C79.8438 28.125 81.25 29.5312 81.25 31.25V34.375C81.25 36.125 79.8438 37.5 78.125 37.5ZM81.25 50V46.875C81.25 45.1562 79.8438 43.75 78.125 43.75H75C73.2812 43.75 71.875 45.1562 71.875 46.875V50C71.875 51.7188 73.2812 53.125 75 53.125H78.125C79.8438 53.125 81.25 51.75 81.25 50ZM81.25 65.625V62.5C81.25 60.7812 79.8438 59.375 78.125 59.375H75C73.2812 59.375 71.875 60.7812 71.875 62.5V65.625C71.875 67.3438 73.2812 68.75 75 68.75H78.125C79.8438 68.75 81.25 67.375 81.25 65.625ZM15.625 62.5V65.625C15.625 67.3438 14.2188 68.75 12.5 68.75H9.375C7.65625 68.75 6.25 67.3438 6.25 65.625V62.5C6.25 60.7812 7.65625 59.375 9.375 59.375H12.5C14.2188 59.375 15.625 60.7812 15.625 62.5ZM12.5 28.125H9.375C7.65625 28.125 6.25 29.5312 6.25 31.25V34.375C6.25 36.0938 7.65625 37.5 9.375 37.5H12.5C14.2188 37.5 15.625 36.0938 15.625 34.375V31.25C15.625 29.5312 14.2188 28.125 12.5 28.125ZM12.5 43.75H9.375C7.65625 43.75 6.25 45.1562 6.25 46.875V50C6.25 51.7188 7.65625 53.125 9.375 53.125H12.5C14.2188 53.125 15.625 51.7188 15.625 50V46.875C15.625 45.1562 14.2188 43.75 12.5 43.75Z" fill="#83CBFF"/>
<path d="M75 87.5H53.0844L43.6594 82.0938L34.2375 87.5H12.5V7.6875C12.5 3.4375 15.9375 0 20.1875 0H67.3125C71.5625 0 75 3.4375 75 7.6875V87.5Z" fill="#D3D3D3"/>
<path d="M53.125 87.5H34.375V75.7812C34.375 73.625 36.125 71.875 38.2812 71.875H49.2188C51.375 71.875 53.1563 73.625 53.1563 75.8125V87.5H53.125Z" fill="#1C1C1C"/>
<path d="M39.0625 50H29.6875C28.8437 50 28.125 49.3125 28.125 48.4375V42.1562C28.125 41.3125 28.8125 40.5937 29.6875 40.5937H39.0938C39.9375 40.5937 40.6563 41.2812 40.6563 42.1562V48.4375C40.6481 48.8547 40.4766 49.2521 40.1785 49.5443C39.8805 49.8365 39.4798 50.0001 39.0625 50ZM59.375 48.4688V42.1875C59.375 41.3437 58.6875 40.625 57.8125 40.625H48.4375C47.5937 40.625 46.875 41.3125 46.875 42.1875V48.4688C46.875 49.3125 47.5625 50.0313 48.4375 50.0313H57.8438C58.6875 50 59.375 49.3125 59.375 48.4688ZM40.625 64.0938V57.8125C40.625 56.9687 39.9375 56.25 39.0625 56.25H29.6875C28.8437 56.25 28.125 56.9375 28.125 57.8125V64.0938C28.125 64.9375 28.8125 65.6563 29.6875 65.6563H39.0938C39.9375 65.625 40.625 64.9375 40.625 64.0938ZM59.375 64.0938V57.8125C59.375 56.9687 58.6875 56.25 57.8125 56.25H48.4375C47.5937 56.25 46.875 56.9375 46.875 57.8125V64.0938C46.875 64.9375 47.5625 65.6563 48.4375 65.6563H57.8438C58.6875 65.625 59.375 64.9375 59.375 64.0938ZM40.625 17.2188V10.9375C40.625 10.0937 39.9375 9.375 39.0625 9.375H29.6875C28.8437 9.375 28.125 10.0625 28.125 10.9375V17.2188C28.125 18.0625 28.8125 18.7813 29.6875 18.7813H39.0938C39.9375 18.75 40.625 18.0625 40.625 17.2188ZM59.375 17.2188V10.9375C59.375 10.0937 58.6875 9.375 57.8125 9.375H48.4375C47.5937 9.375 46.875 10.0625 46.875 10.9375V17.2188C46.875 18.0625 47.5625 18.7813 48.4375 18.7813H57.8438C58.6875 18.75 59.375 18.0625 59.375 17.2188ZM40.625 32.8438V26.5625C40.625 25.7187 39.9375 25 39.0625 25H29.6875C28.8437 25 28.125 25.6875 28.125 26.5625V32.8438C28.125 33.6875 28.8125 34.4063 29.6875 34.4063H39.0938C39.9375 34.375 40.625 33.6875 40.625 32.8438ZM59.375 32.8438V26.5625C59.375 25.7187 58.6875 25 57.8125 25H48.4375C47.5937 25 46.875 25.6875 46.875 26.5625V32.8438C46.875 33.6875 47.5625 34.4063 48.4375 34.4063H57.8438C58.6875 34.375 59.375 33.6875 59.375 32.8438Z" fill="#83CBFF"/>
</svg>
