<svg width="500" height="532" viewBox="0 0 500 532" fill="none" xmlns="http://www.w3.org/2000/svg">
<g clip-path="url(#clip0_20_3)">
<path d="M495.265 256.096V527.495H445.62V309.474H276.96L295.673 256.096H495.265Z" fill="black" stroke="#231F20" stroke-width="8.1184" stroke-miterlimit="10"/>
<path d="M4.05932 281.141C4.00615 319.108 12.8039 356.564 29.7542 390.537L57.3162 331.029C47.2632 291.075 49.8749 248.985 64.7901 210.581C79.7053 172.177 106.187 139.357 140.571 116.662L169.188 49.1164C73.0659 82.402 4.05932 173.694 4.05932 281.141ZM494.006 257.598H446.757C447.785 265.825 448.301 274.109 448.3 282.4C448.3 391.999 359.444 480.896 249.805 480.896C209.427 480.967 169.999 468.655 136.837 445.621L117.23 487.999C156.716 513.321 202.652 526.75 249.56 526.683C385.179 526.683 495.102 416.759 495.102 281.141C495.102 273.185 494.737 265.337 494.006 257.598ZM439.126 222.608H488.039C478.104 182.213 458.077 145.001 429.835 114.458C401.592 83.9152 366.059 61.0416 326.564 47.98L354.41 113.658C394.754 138.692 424.805 177.339 439.126 222.608Z" fill="black" stroke="#231F20" stroke-width="8.1184" stroke-miterlimit="10"/>
<path d="M365.41 224.718H311.26L249.642 73.634L65.516 525.019H11.366L222.567 7.26599L223.865 4.05899H275.377L276.716 7.30699L365.41 224.718Z" fill="black" stroke="#231F20" stroke-width="8.1184" stroke-miterlimit="10"/>
<path d="M237.637 303.535C252.786 303.535 265.068 291.651 265.068 276.992C265.068 262.333 252.786 250.45 237.637 250.45C222.487 250.45 210.206 262.333 210.206 276.992C210.206 291.651 222.487 303.535 237.637 303.535Z" fill="black" stroke="#231F20" stroke-width="6.6762" stroke-miterlimit="10"/>
</g>
<defs>
<clipPath id="clip0_20_3">
<rect width="499.324" height="531.554" fill="white"/>
</clipPath>
</defs>
</svg>
